<svg width="290" height="243" viewBox="0 0 290 243" fill="none" xmlns="http://www.w3.org/2000/svg">
<g filter="url(#filter0_d_59_14)">
<rect x="232.024" y="50.2114" width="45" height="45" rx="12" transform="rotate(59.5984 232.024 50.2114)" fill="#55E5E0"/>
<rect x="234.093" y="43.1057" width="54" height="54" rx="15" transform="rotate(59.5984 234.093 43.1057)" fill="#55E5E0" fill-opacity="0.7"/>
<rect x="236.162" y="39" width="60" height="60" rx="15" transform="rotate(59.5984 236.162 39)" fill="#55E5E0" fill-opacity="0.4"/>
</g>
<circle cx="61" cy="163" r="14" fill="#EAA588" fill-opacity="0.4"/>
<circle cx="61" cy="163" r="18" fill="#EAA588" fill-opacity="0.2"/>
<circle cx="61" cy="163" r="11" fill="#EAA588" fill-opacity="0.6"/>
<circle cx="61" cy="163" r="8" fill="#EAA588"/>
<path d="M42.2879 5.8578C40.628 4.04129 38.6133 2.58441 36.3682 1.57714C34.1231 0.569882 31.6954 0.0336304 29.2349 0.0015173C26.7744 -0.0305969 24.3335 0.44211 22.0629 1.39044C19.7923 2.33876 17.7403 3.74257 16.0336 5.51513C14.3268 7.2877 13.0017 9.39138 12.1399 11.6962C11.2782 14.0011 10.8981 16.4581 11.0233 18.9156C11.1485 21.3731 11.7762 23.7788 12.8677 25.9842C13.9591 28.1895 15.4912 30.1477 17.3692 31.7377L29 18L42.2879 5.8578Z" fill="url(#paint0_linear_59_14)"/>
<rect x="67" y="30" width="158" height="174" rx="24" fill="#2E2D3D"/>
<rect x="83" y="63" width="126" height="9" rx="4.5" fill="#48485D"/>
<rect x="83" y="96" width="126" height="9" rx="4.5" fill="#48485D"/>
<rect x="83" y="129" width="126" height="9" rx="4.5" fill="#48485D"/>
<rect x="83" y="162" width="126" height="9" rx="4.5" fill="#48485D"/>
<path d="M107.592 31C108.37 31 109.008 30.3675 108.921 29.5947C108.809 28.6136 108.581 27.6561 108.243 26.7542C107.745 25.4255 107.018 24.2502 106.116 23.3117C105.213 22.3733 104.156 21.6947 103.02 21.3241C101.884 20.9535 100.697 20.9 99.5425 21.1674C98.3881 21.4347 97.295 22.0164 96.3406 22.8712C95.3862 23.7259 94.5941 24.8327 94.0203 26.1131C93.4466 27.3935 93.1053 28.816 93.0208 30.2798C92.969 31.1765 93.0143 32.0752 93.1539 32.9519C93.2925 33.8228 94.2464 34.2396 95.0415 33.8582V33.8582C95.6848 33.5496 95.9916 32.8174 95.8932 32.1107C95.821 31.5917 95.7994 31.062 95.8299 30.5333C95.8847 29.5849 96.1058 28.6632 96.4776 27.8336C96.8493 27.004 97.3626 26.2868 97.981 25.733C98.5994 25.1792 99.3077 24.8023 100.056 24.629C100.804 24.4558 101.573 24.4905 102.309 24.7306C103.045 24.9707 103.73 25.4104 104.315 26.0185C104.9 26.6265 105.37 27.388 105.693 28.249C105.856 28.682 105.979 29.1348 106.061 29.5989C106.197 30.3647 106.814 31 107.592 31V31Z" fill="#48485D"/>
<path d="M137.537 31C138.345 31 139.009 30.343 138.914 29.5408C138.801 28.5785 138.575 27.6395 138.243 26.7542C137.745 25.4255 137.018 24.2502 136.116 23.3117C135.213 22.3733 134.156 21.6947 133.02 21.3241C131.884 20.9535 130.697 20.9 129.543 21.1674C128.388 21.4347 127.295 22.0164 126.341 22.8712C125.386 23.7259 124.594 24.8327 124.02 26.1131C123.447 27.3935 123.105 28.816 123.021 30.2798C122.97 31.1547 123.012 32.0316 123.144 32.8881C123.283 33.7933 124.274 34.2264 125.1 33.8302V33.8302C125.768 33.5098 126.086 32.7491 125.99 32.0142C125.928 31.5295 125.91 31.0358 125.938 30.5431C125.992 29.6146 126.208 28.7122 126.572 27.9C126.936 27.0877 127.439 26.3856 128.044 25.8434C128.65 25.3012 129.343 24.9322 130.075 24.7626C130.808 24.593 131.561 24.6269 132.282 24.862C133.002 25.0971 133.673 25.5276 134.245 26.1229C134.818 26.7182 135.279 27.4637 135.595 28.3066C135.744 28.7049 135.86 29.1202 135.94 29.5458C136.089 30.3396 136.73 31 137.537 31V31Z" fill="#48485D"/>
<path d="M167.572 31C168.36 31 169.009 30.3584 168.918 29.5746C168.806 28.6006 168.579 27.6499 168.243 26.7542C167.745 25.4255 167.018 24.2502 166.116 23.3117C165.213 22.3733 164.156 21.6947 163.02 21.3241C161.884 20.9535 160.697 20.9 159.543 21.1674C158.388 21.4347 157.295 22.0164 156.341 22.8712C155.386 23.7259 154.594 24.8327 154.02 26.1131C153.447 27.3935 153.105 28.816 153.021 30.2798C152.969 31.1684 153.013 32.0589 153.15 32.9281C153.289 33.8118 154.257 34.2347 155.063 33.8478V33.8478C155.716 33.5348 156.027 32.792 155.929 32.0748C155.861 31.5685 155.841 31.0522 155.87 30.537C155.925 29.596 156.144 28.6814 156.513 27.8583C156.882 27.0352 157.391 26.3236 158.005 25.7741C158.618 25.2246 159.321 24.8507 160.063 24.6788C160.805 24.5069 161.568 24.5413 162.299 24.7795C163.029 25.0178 163.708 25.4541 164.289 26.0574C164.869 26.6607 165.336 27.4162 165.656 28.2704C165.814 28.6905 165.934 29.1293 166.016 29.5791C166.157 30.3554 166.783 31 167.572 31V31Z" fill="#48485D"/>
<path d="M197.544 31C198.348 31 199.009 30.3461 198.915 29.5477C198.802 28.5831 198.576 27.6417 198.243 26.7542C197.745 25.4255 197.018 24.2502 196.116 23.3117C195.213 22.3733 194.156 21.6947 193.02 21.3241C191.884 20.9535 190.697 20.9 189.543 21.1674C188.388 21.4347 187.295 22.0164 186.341 22.8712C185.386 23.7259 184.594 24.8327 184.02 26.1131C183.447 27.3935 183.105 28.816 183.021 30.2798C182.97 31.1575 183.012 32.0372 183.145 32.8963C183.284 33.7971 184.27 34.2281 185.092 33.8338V33.8338C185.757 33.5149 186.073 32.7579 185.978 32.0267C185.914 31.5375 185.896 31.0392 185.924 30.5419C185.978 29.6108 186.195 28.7059 186.56 27.8914C186.925 27.0769 187.429 26.3729 188.036 25.8292C188.643 25.2854 189.339 24.9154 190.073 24.7454C190.807 24.5753 191.562 24.6093 192.285 24.8451C193.008 25.0808 193.68 25.5125 194.254 26.1094C194.828 26.7064 195.29 27.454 195.607 28.2992C195.759 28.7019 195.875 29.1221 195.955 29.5526C196.103 30.3428 196.741 31 197.544 31V31Z" fill="#48485D"/>
<rect x="206" y="176" width="45" height="45" rx="12" fill="url(#paint1_linear_59_14)"/>
<rect x="203" y="173" width="51" height="51" rx="15" fill="url(#paint2_linear_59_14)" fill-opacity="0.7"/>
<rect x="198" y="168" width="61" height="61" rx="15" fill="url(#paint3_linear_59_14)" fill-opacity="0.4"/>
<path fill-rule="evenodd" clip-rule="evenodd" d="M232.137 189.47C231.996 189.329 231.806 189.25 231.607 189.25C231.408 189.25 231.217 189.329 231.076 189.47L221.884 198.662C221.79 198.756 221.722 198.874 221.689 199.003L220.689 202.831C220.621 203.089 220.696 203.363 220.884 203.551C221.072 203.739 221.346 203.814 221.604 203.746L225.432 202.746C225.561 202.713 225.679 202.645 225.773 202.551L234.965 193.359C235.258 193.066 235.258 192.591 234.965 192.298L232.137 189.47ZM223.088 199.579L231.607 191.061L233.374 192.828L224.856 201.347L222.463 201.972L223.088 199.579Z" fill="white"/>
<path d="M221 205.25C220.586 205.25 220.25 205.586 220.25 206C220.25 206.414 220.586 206.75 221 206.75H236C236.414 206.75 236.75 206.414 236.75 206C236.75 205.586 236.414 205.25 236 205.25H221Z" fill="white"/>
<circle cx="285" cy="196" r="5" fill="white" fill-opacity="0.4"/>
<circle cx="21" cy="238" r="5" fill="white" fill-opacity="0.4"/>
<circle cx="5" cy="91" r="5" fill="white" fill-opacity="0.4"/>
<circle cx="255" cy="15" r="5" fill="white" fill-opacity="0.4"/>
<circle cx="285" cy="196" r="3" fill="white"/>
<circle cx="21" cy="238" r="3" fill="white"/>
<circle cx="5" cy="91" r="3" fill="white"/>
<circle cx="255" cy="15" r="3" fill="white"/>
<defs>
<filter id="filter0_d_59_14" x="181" y="42" width="86.0078" height="86.0078" filterUnits="userSpaceOnUse" color-interpolation-filters="sRGB">
<feFlood flood-opacity="0" result="BackgroundImageFix"/>
<feColorMatrix in="SourceAlpha" type="matrix" values="0 0 0 0 0 0 0 0 0 0 0 0 0 0 0 0 0 0 127 0" result="hardAlpha"/>
<feOffset dy="4"/>
<feGaussianBlur stdDeviation="2"/>
<feComposite in2="hardAlpha" operator="out"/>
<feColorMatrix type="matrix" values="0 0 0 0 0 0 0 0 0 0 0 0 0 0 0 0 0 0 0.25 0"/>
<feBlend mode="normal" in2="BackgroundImageFix" result="effect1_dropShadow_59_14"/>
<feBlend mode="normal" in="SourceGraphic" in2="effect1_dropShadow_59_14" result="shape"/>
</filter>
<linearGradient id="paint0_linear_59_14" x1="16.8578" y1="4.71212" x2="41.1422" y2="31.2878" gradientUnits="userSpaceOnUse">
<stop stop-color="#764C37"/>
<stop offset="1"/>
</linearGradient>
<linearGradient id="paint1_linear_59_14" x1="228.5" y1="176" x2="228.5" y2="221" gradientUnits="userSpaceOnUse">
<stop stop-color="#B690F9"/>
<stop offset="1" stop-color="#8B76F3"/>
</linearGradient>
<linearGradient id="paint2_linear_59_14" x1="228.5" y1="173" x2="228.5" y2="224" gradientUnits="userSpaceOnUse">
<stop stop-color="#B690F9"/>
<stop offset="1" stop-color="#8B76F3"/>
</linearGradient>
<linearGradient id="paint3_linear_59_14" x1="228.5" y1="168" x2="228.5" y2="229" gradientUnits="userSpaceOnUse">
<stop stop-color="#B690F9"/>
<stop offset="1" stop-color="#8B76F3"/>
</linearGradient>
</defs>
</svg>
